<svg width="167" height="48" viewBox="0 0 167 48" fill="none" xmlns="http://www.w3.org/2000/svg">
<path d="M54.7463 32.5312C52.6838 32.5312 51.0432 31.965 49.8245 30.832C48.6057 29.6991 47.9963 28.0781 47.9963 25.9683V22.0317C47.9963 19.9223 48.6057 18.3009 49.8245 17.168C51.0432 16.035 52.6834 15.4688 54.7463 15.4688C56.8093 15.4688 58.4495 16.035 59.6682 17.168C60.887 18.3009 61.4963 19.9219 61.4963 22.0317V25.9683C61.4963 28.0777 60.887 29.6991 59.6682 30.832C58.4495 31.965 56.8084 32.5312 54.7463 32.5312ZM54.7463 29.7656C55.9023 29.7656 56.8004 29.43 57.4412 28.7588C58.082 28.0875 58.4026 27.187 58.4026 26.0639V21.9384C58.4026 20.813 58.082 19.9148 57.4412 19.2436C56.8004 18.5723 55.9018 18.2348 54.7463 18.2348C53.5909 18.2348 52.7101 18.5723 52.0627 19.2436C51.4145 19.9148 51.0901 20.8134 51.0901 21.9384V26.0639C51.0901 27.1875 51.4145 28.0875 52.0627 28.7588C52.7101 29.43 53.6059 29.7656 54.7463 29.7656Z" fill="white"/>
<path d="M70.448 32.5312C68.4169 32.5312 66.8082 31.965 65.6208 30.832C64.4326 29.6991 63.8396 28.0781 63.8396 25.9683V22.0317C63.8396 19.9223 64.4326 18.3009 65.6208 17.168C66.8082 16.035 68.4169 15.4688 70.448 15.4688C72.4791 15.4688 74.0223 16.02 75.1238 17.1225C76.2254 18.2231 76.7766 19.7353 76.7766 21.6562V21.7973H73.7298V21.563C73.7298 20.5941 73.4598 19.7986 72.9212 19.1733C72.3826 18.5475 71.5576 18.2348 70.4485 18.2348C69.3394 18.2348 68.4952 18.5723 67.8708 19.2436C67.2451 19.9148 66.9333 20.8284 66.9333 21.9844V26.0166C66.9333 27.157 67.2451 28.0669 67.8708 28.748C68.4957 29.4272 69.3549 29.7666 70.4485 29.7666C71.5421 29.7666 72.3826 29.4502 72.9212 28.8169C73.4598 28.1855 73.7298 27.3923 73.7298 26.4384V26.017H76.7766V26.3452C76.7766 28.2675 76.2254 29.7783 75.1238 30.8808C74.0223 31.9814 72.4641 32.5327 70.448 32.5327V32.5312Z" fill="white"/>
<path d="M82.7757 32.2031V18.6098H77.9949V15.7964H90.6507V18.6098H85.8689V32.2031H82.7752H82.7757Z" fill="white"/>
<path d="M98.4792 32.5312C96.4167 32.5312 94.7761 31.965 93.5574 30.832C92.3386 29.6991 91.7292 28.0781 91.7292 25.9683V22.0317C91.7292 19.9223 92.3386 18.3009 93.5574 17.168C94.7761 16.035 96.4163 15.4688 98.4792 15.4688C100.542 15.4688 102.182 16.035 103.401 17.168C104.62 18.3009 105.229 19.9219 105.229 22.0317V25.9683C105.229 28.0777 104.62 29.6991 103.401 30.832C102.182 31.965 100.541 32.5312 98.4792 32.5312ZM98.4792 29.7656C99.6352 29.7656 100.533 29.43 101.174 28.7588C101.815 28.0875 102.135 27.187 102.135 26.0639V21.9384C102.135 20.813 101.815 19.9148 101.174 19.2436C100.533 18.5723 99.6347 18.2348 98.4792 18.2348C97.3238 18.2348 96.443 18.5723 95.7957 19.2436C95.1474 19.9148 94.823 20.8134 94.823 21.9384V26.0639C94.823 27.1875 95.1474 28.0875 95.7957 28.7588C96.443 29.43 97.3388 29.7656 98.4792 29.7656Z" fill="white"/>
<path d="M113.642 32.5312C112.376 32.5312 111.259 32.3044 110.291 31.852C109.322 31.3983 108.564 30.7495 108.017 29.9067C107.47 29.0616 107.197 28.0472 107.197 26.8589V26.2027H110.243V26.8589C110.243 27.8433 110.548 28.583 111.157 29.0752C111.767 29.5673 112.595 29.8134 113.642 29.8134C114.689 29.8134 115.497 29.6016 116.02 29.1802C116.544 28.7588 116.806 28.2188 116.806 27.563C116.806 27.1092 116.677 26.7427 116.419 26.4605C116.161 26.1802 115.786 25.9495 115.294 25.77C114.801 25.5909 114.204 25.4227 113.501 25.2666L112.962 25.1484C111.837 24.8986 110.872 24.5822 110.068 24.2006C109.263 23.8172 108.646 23.3138 108.217 22.688C107.786 22.0641 107.572 21.2498 107.572 20.2505C107.572 19.2511 107.81 18.3947 108.286 17.685C108.763 16.9734 109.435 16.4264 110.302 16.043C111.169 15.6614 112.189 15.4688 113.361 15.4688C114.532 15.4688 115.576 15.6689 116.49 16.0678C117.403 16.4662 118.122 17.0597 118.646 17.8491C119.169 18.6366 119.43 19.6266 119.43 20.813V21.5166H116.384V20.813C116.384 20.1872 116.263 19.6837 116.02 19.3003C115.778 18.9187 115.431 18.6366 114.978 18.4575C114.524 18.2784 113.985 18.1884 113.361 18.1884C112.423 18.1884 111.732 18.3637 111.286 18.7148C110.841 19.0678 110.619 19.5464 110.619 20.1567C110.619 20.5631 110.724 20.9062 110.934 21.1884C111.146 21.4687 111.462 21.7036 111.884 21.8902C112.305 22.0791 112.845 22.2431 113.501 22.3823L114.04 22.5005C115.212 22.7503 116.231 23.0709 117.098 23.4619C117.965 23.8509 118.641 24.368 119.125 25.0088C119.609 25.6495 119.852 26.4698 119.852 27.4692C119.852 28.4686 119.597 29.348 119.09 30.105C118.582 30.8639 117.863 31.4573 116.933 31.8862C116.003 32.3152 114.906 32.5308 113.64 32.5308L113.642 32.5312Z" fill="white"/>
<path d="M125.43 32.2031V18.6098H120.649V15.7964H133.305V18.6098H128.523V32.2031H125.43H125.43Z" fill="white"/>
<path d="M132.789 32.2031L137.102 15.7969H142.493L146.805 32.2031H143.617L142.728 28.5947H136.868L135.978 32.2031H132.79H132.789ZM137.593 25.7358H142L140.008 17.7422H139.585L137.593 25.7358Z" fill="white"/>
<path d="M148.773 32.2031V15.7969H155.897C156.928 15.7969 157.827 15.9783 158.592 16.3364C159.358 16.6969 159.952 17.2041 160.374 17.8603C160.796 18.5166 161.007 19.2891 161.007 20.1797V20.4619C161.007 21.4462 160.772 22.2431 160.303 22.8516C159.835 23.4619 159.257 23.9063 158.569 24.1884V24.6098C159.194 24.6403 159.678 24.8559 160.022 25.2544C160.366 25.6528 160.538 26.1792 160.538 26.8355V32.2027H157.444V27.2817C157.444 26.9058 157.346 26.6006 157.151 26.3662C156.955 26.1319 156.631 26.0152 156.178 26.0152H151.866V32.2022H148.772L148.773 32.2031ZM151.867 23.2027H155.57C156.304 23.2027 156.878 23.0044 157.292 22.6055C157.706 22.207 157.914 21.6806 157.914 21.0244V20.79C157.914 20.1337 157.711 19.6055 157.304 19.207C156.897 18.8086 156.319 18.6098 155.569 18.6098H151.866V23.2027H151.867Z" fill="white"/>
<path d="M20.8997 38.6173C22.1869 37.5396 23.4745 36.462 24.7617 35.3843C24.4978 37.7379 24.2344 40.091 23.9705 42.4446C25.0599 41.9628 26.1497 41.4809 27.2391 40.999C27.69 36.9406 28.1409 32.8817 28.5919 28.8228C25.665 31.2832 22.7381 33.7437 19.8108 36.2046C20.1736 37.0085 20.5364 37.8129 20.8992 38.6168L20.8997 38.6173Z" fill="white"/>
<path d="M12.4079 29.6679L11.4719 32.1434L16.4889 32.5883C14.6383 34.0658 12.7876 35.5437 10.937 37.0212L14.2703 38.3103C17.4592 35.7594 20.6481 33.2084 23.8365 30.657C20.027 30.327 16.2175 29.9975 12.4079 29.6675V29.6679Z" fill="white"/>
<path d="M11.7952 19.8115C10.9913 20.1743 10.1869 20.5371 9.38301 20.8999C10.4607 22.1871 11.5383 23.4748 12.616 24.762C10.2624 24.4981 7.90926 24.2346 5.55566 23.9707C6.03754 25.0601 6.51941 26.1499 7.00129 27.2393C11.0597 27.6903 15.1186 28.1412 19.1775 28.5921C16.7171 25.6653 14.2566 22.7384 11.7957 19.811L11.7952 19.8115Z" fill="white"/>
<path d="M18.3318 12.4079L15.8563 11.4719L15.4115 16.4889C13.934 14.6383 12.456 12.7876 10.9785 10.937L9.68945 14.2703C12.2404 17.4592 14.7913 20.6481 17.3427 23.8365C17.6727 20.027 18.0023 16.2175 18.3323 12.4079H18.3318Z" fill="white"/>
<path d="M27.1004 9.38301C25.8132 10.4607 24.5255 11.5383 23.2384 12.616L24.0296 5.55566C22.9402 6.03754 21.8504 6.51941 20.761 7.00129C20.3101 11.0602 19.8591 15.1186 19.4082 19.1775C22.3351 16.7171 25.262 14.2566 28.1893 11.7957C27.8265 10.9918 27.4637 10.1874 27.1009 9.38348L27.1004 9.38301Z" fill="white"/>
<path d="M35.5922 18.3318C35.9044 17.5068 36.2161 16.6813 36.5283 15.8563C34.8558 15.7082 33.1837 15.5596 31.5112 15.4115C33.3619 13.934 35.2125 12.456 37.0631 10.9785L33.7298 9.68945C30.5409 12.2404 27.352 14.7913 24.1636 17.3427C27.9731 17.6727 31.7826 18.0023 35.5922 18.3323V18.3318Z" fill="#FF4F30"/>
<path d="M42.4449 24.0296C41.963 22.9402 41.4811 21.8504 40.9992 20.761C36.9408 20.3101 32.8819 19.8591 28.823 19.4082C31.2835 22.3351 33.7439 25.262 36.2049 28.1893C37.0088 27.8265 37.8132 27.4637 38.6171 27.1009C37.5394 25.8137 36.4617 24.526 35.3841 23.2388C37.7377 23.5027 40.0908 23.7662 42.4444 24.0301L42.4449 24.0296Z" fill="white"/>
<path d="M29.6682 35.5922L32.1437 36.5283C32.2918 34.8558 32.4404 33.1837 32.5885 31.5112C34.066 33.3619 35.544 35.2125 37.0215 37.0631L38.3105 33.7298C35.7596 30.5409 33.2087 27.352 30.6573 24.1636C30.3273 27.9731 29.9977 31.7826 29.6677 35.5922H29.6682Z" fill="white"/>
</svg>
